<?xml version="1.0" encoding="UTF-8"?>
<svg version="1.1" xmlns="http://www.w3.org/2000/svg" width="1024" height="1024">
<path d="M0 0 C337.92 0 675.84 0 1024 0 C1024 337.92 1024 675.84 1024 1024 C686.08 1024 348.16 1024 0 1024 C0 686.08 0 348.16 0 0 Z " fill="#FDFDFD" transform="translate(0,0)"/>
<path d="M0 0 C0.7421875 2.1953125 0.7421875 2.1953125 1 5 C-0.5546875 7.3671875 -0.5546875 7.3671875 -2.875 9.875 C-24.46698591 34.91500846 -34.35883487 69.73659654 -40.3125 101.5625 C-40.47194092 102.40530518 -40.63138184 103.24811035 -40.7956543 104.11645508 C-46.83236402 138.3821913 -42.77215392 173.92053872 -34.50317383 207.36645508 C-34.0038691 209.97974966 -33.90722664 212.34680205 -34 215 C-33.34 215 -32.68 215 -32 215 C-31.73703125 213.74960937 -31.4740625 212.49921875 -31.203125 211.2109375 C-29.95658885 205.61027245 -28.37375235 200.12625692 -26.75 194.625 C-26.4413501 193.57280273 -26.1327002 192.52060547 -25.81469727 191.43652344 C-23.69648605 184.25515145 -21.49197821 177.10513971 -19.20898438 169.97460938 C-17.04539222 163.2054082 -15.00564171 156.40165733 -13.00366211 149.58300781 C-9.50958254 137.77917423 -9.50958254 137.77917423 -6 135 C1.15607199 133.91497196 8.6494853 135.33750043 15.6875 136.6875 C17.10554932 136.95433594 17.10554932 136.95433594 18.55224609 137.2265625 C42.21621841 141.86577289 42.21621841 141.86577289 47 148 C59.69487967 187.55688877 43.86575189 251.87710381 38.9375 292.25 C38.81370972 293.26740265 38.68991943 294.2848053 38.56237793 295.33303833 C37.86589121 301.01252369 37.13612655 306.68618681 36.35906982 312.35522461 C36.11893785 314.1239478 35.88610997 315.89367743 35.66046143 317.66430664 C35.33821256 320.17036129 34.98765018 322.67081869 34.62890625 325.171875 C34.53906967 325.90956116 34.44923309 326.64724731 34.35667419 327.4072876 C33.81367294 330.96123882 33.20003218 332.7917843 30.68457031 335.41015625 C28.14906206 336.91172316 26.2884876 337.71237452 23.41796875 338.265625 C22.56783203 338.43320312 21.71769531 338.60078125 20.84179688 338.7734375 C19.96587891 338.93070313 19.08996094 339.08796875 18.1875 339.25 C17.32318359 339.42273438 16.45886719 339.59546875 15.56835938 339.7734375 C10.30278756 340.77488965 5.35912244 341.36007542 0 341 C-2 339 -2 339 -2.25436401 336.9783783 C-2.18059659 329.19619234 -1.4509889 321.52769828 -0.57956314 313.80310249 C-0.31294561 311.43857208 -0.05392979 309.07330668 0.20339966 306.70774841 C0.754016 301.65859665 1.31397622 296.61050438 1.875 291.5625 C4.91504812 264.45325335 4.91504812 264.45325335 7.2578125 237.27734375 C7.37719681 235.63506554 7.37719681 235.63506554 7.49899292 233.95960999 C7.94482943 227.29728052 8.08822116 220.67638151 8 214 C7.73200844 214.96527115 7.73200844 214.96527115 7.45860291 215.95004272 C6.15354103 220.59572149 4.62624976 225.02940241 2.71484375 229.4609375 C0.07335187 235.7253908 -2.26584733 242.07685092 -4.56521606 248.47351074 C-8.22482417 258.63541019 -11.99024424 268.74480161 -16.0625 278.75 C-16.43213867 279.66571777 -16.80177734 280.58143555 -17.18261719 281.52490234 C-17.52583008 282.35715332 -17.86904297 283.1894043 -18.22265625 284.046875 C-18.51922119 284.76713867 -18.81578613 285.48740234 -19.12133789 286.22949219 C-20 288 -20 288 -22 290 C-27.01489013 290.82211314 -27.01489013 290.82211314 -30 290 C-35.31063573 284.51648296 -37.82058611 275.7330548 -40.625 268.8125 C-41.14271294 267.54850586 -41.66062009 266.28459124 -42.17871094 265.02075195 C-47.71601404 251.44918727 -52.88856503 237.7366007 -58 224 C-59.35120844 253.1260485 -53.13249084 282.53585105 -47.125 310.88671875 C-46.80117125 312.42463837 -46.47735939 313.96256154 -46.15356445 315.50048828 C-45.52740376 318.47197929 -44.8862463 321.43965468 -44.23510742 324.40576172 C-40.67064722 340.92211773 -40.67064722 340.92211773 -42 346 C-45.38026567 349.32413062 -48.07550151 349.41069546 -52.60351562 349.45898438 C-53.82071289 349.44834961 -53.82071289 349.44834961 -55.0625 349.4375 C-55.87783203 349.45748047 -56.69316406 349.47746094 -57.53320312 349.49804688 C-58.70979492 349.49708008 -58.70979492 349.49708008 -59.91015625 349.49609375 C-60.97955444 349.49887329 -60.97955444 349.49887329 -62.07055664 349.50170898 C-64 349 -64 349 -65.63671875 347.57177734 C-67.69993073 343.67960775 -68.20710335 339.67663141 -68.90234375 335.35546875 C-69.06618057 334.39465897 -69.2300174 333.43384918 -69.39881897 332.44392395 C-69.92226013 329.36011969 -70.43020663 326.27399745 -70.9375 323.1875 C-71.27434856 321.1840693 -71.61222976 319.18081194 -71.95117188 317.17773438 C-72.63371363 313.13794896 -73.30979917 309.09715256 -73.98217773 305.05566406 C-74.80487079 300.13085596 -75.65977398 295.2123688 -76.52688599 290.29521179 C-78.55157541 278.80769952 -80.39251707 267.29976424 -82.12768555 255.76513672 C-82.56358984 252.86775602 -83.00316731 249.97095083 -83.44335938 247.07421875 C-84.97697414 236.95522435 -86.46351627 226.83051191 -87.90188599 216.69755554 C-89.2057225 207.52132616 -90.56386195 198.35351168 -91.9375 189.1875 C-92.1301796 187.8986087 -92.1301796 187.8986087 -92.32675171 186.5836792 C-94.03625997 175.16237161 -95.79682144 163.75477487 -97.79467773 152.37963867 C-98.79602964 146.60243888 -99.49155523 140.84127518 -100 135 C-100.66 135 -101.32 135 -102 135 C-108.37451084 160.938834 -110.86251448 187.20198229 -112.82255554 213.76731873 C-112.953484 215.41471594 -113.09889629 217.06097718 -113.25227356 218.70643616 C-113.94181704 226.25222483 -114.18977214 233.74094956 -114.23828125 241.31640625 C-114.25038887 243.14473244 -114.25038887 243.14473244 -114.26274109 245.00999451 C-114.27646726 247.5620689 -114.28723974 250.11416077 -114.29516602 252.66625977 C-114.30679393 255.27992113 -114.32741126 257.89355684 -114.35668945 260.50708008 C-114.39906957 264.29785156 -114.41548178 268.08792834 -114.42578125 271.87890625 C-114.45204338 273.63661095 -114.45204338 273.63661095 -114.47883606 275.42982483 C-114.47591049 276.51202805 -114.47298492 277.59423126 -114.4699707 278.70922852 C-114.47877007 280.13719505 -114.47877007 280.13719505 -114.48774719 281.5940094 C-114.20431496 284.12612814 -114.20431496 284.12612814 -112.20280457 285.80528259 C-108.94892409 287.57006359 -105.67875678 287.45384905 -102.0625 287.5 C-97.0366842 287.5644926 -93.00658545 287.63535365 -89 291 C-86.70562617 295.57267983 -85.98401756 300.5573753 -85.0546875 305.54296875 C-84.87994904 306.46660721 -84.70521057 307.39024567 -84.525177 308.34187317 C-84.15782435 310.29390105 -83.79320954 312.24644589 -83.43115234 314.19946289 C-82.87979805 317.16172155 -82.31344201 320.1208468 -81.74609375 323.08007812 C-81.38970114 324.98420231 -81.03420385 326.88849434 -80.6796875 328.79296875 C-80.51097137 329.66624313 -80.34225525 330.53951752 -80.16842651 331.43925476 C-79.12983629 337.14197454 -78.04231178 343.22800852 -79 349 C-81.15470235 351.92608549 -82.01435502 352.00263966 -85.78125 352.6953125 C-87.3527406 352.85342236 -88.92587939 352.99567195 -90.5 353.125 C-91.32991455 353.20282715 -92.1598291 353.2806543 -93.01489258 353.36083984 C-101.99372768 354.16567013 -110.99472093 354.61679664 -120 355 C-120.21741004 358.83864597 -119.68410608 361.24727014 -118 364.6875 C-116.34092131 368.15478805 -114.71598685 371.62302699 -113.203125 375.15625 C-104.6394205 395.0982574 -93.86276453 413.07772774 -79.75 429.640625 C-78 432 -78 432 -78.25 434.3125 C-78.62125 435.1478125 -78.62125 435.1478125 -79 436 C-84.39471653 435.49316048 -88.61822001 434.07367486 -93.4375 431.5625 C-94.12634277 431.20905518 -94.81518555 430.85561035 -95.52490234 430.49145508 C-113.61430483 421.0360977 -129.25146538 409.03012463 -144 395 C-144.75539063 394.3090625 -145.51078125 393.618125 -146.2890625 392.90625 C-156.81248351 382.95683377 -165.09234985 370.5771222 -173.1953125 358.63671875 C-173.79085937 357.76660156 -174.38640625 356.89648438 -175 356 C-175.49242187 355.24332031 -175.98484375 354.48664063 -176.4921875 353.70703125 C-178.93822732 350.93781001 -181.24771679 351.06582478 -184.8125 350.75390625 C-185.864375 350.69074219 -186.91625 350.62757813 -188 350.5625 C-207.10075384 349.16435923 -207.10075384 349.16435923 -212 345 C-215.27294093 338.64924579 -215.83650927 331.30587519 -216.625 324.3125 C-216.74617188 323.32572266 -216.86734375 322.33894531 -216.9921875 321.32226562 C-218.57485812 308.01579035 -219.17387673 294.75172855 -219.23828125 281.36328125 C-219.24308376 280.58652668 -219.24788628 279.80977211 -219.25283432 279.00947952 C-219.28873241 273.11049277 -219.30435865 267.211584 -219.3125 261.3125 C-219.31409245 260.44609516 -219.31568489 259.57969032 -219.31732559 258.68703079 C-219.35267648 236.03949452 -219.08484379 213.51890411 -217.1875 190.9375 C-217.10472809 189.9443277 -217.02195618 188.9511554 -216.93667603 187.92788696 C-216.0595149 177.73090227 -214.88148963 167.58048531 -213.48828125 157.44140625 C-213.37050827 156.56588608 -213.25273529 155.69036591 -213.13139343 154.78831482 C-211.49209896 143.40342556 -211.49209896 143.40342556 -207 140 C-197.28356702 136.8265595 -185.1153772 136.09161757 -175 137 C-174.01 137.66 -173.02 138.32 -172 139 C-170.59758255 146.05333484 -172.5324589 153.63256371 -173.85961914 160.58691406 C-174.86295596 165.91673394 -175.43894145 171.15786317 -175.69140625 176.58203125 C-175.96934569 179.66047446 -176.43124762 182.6102041 -176.96484375 185.65234375 C-177.99655875 191.67601851 -178.57597369 197.65667432 -179 203.75 C-179.07976074 204.85996338 -179.15952148 205.96992676 -179.24169922 207.11352539 C-179.41114185 209.50207199 -179.57756221 211.8908346 -179.74121094 214.27978516 C-180.00318472 218.04578185 -180.28633437 221.80982388 -180.5703125 225.57421875 C-181.5519389 239.12524458 -182.21030573 252.65183973 -182.29754639 266.24002075 C-182.30730626 267.71505592 -182.32162402 269.19007 -182.34112549 270.66500854 C-182.70104534 288.54744033 -182.70104534 288.54744033 -177 305 C-164.65725753 312.93462016 -143.97982078 309.52118993 -130.34375 306.8515625 C-126.89615852 306.17069163 -126.89615852 306.17069163 -124 304 C-123.7497843 300.91634129 -123.7497843 300.91634129 -124 298 C-126.30937377 296.84531312 -127.97207967 296.74033515 -130.54296875 296.53515625 C-131.90711914 296.41817383 -131.90711914 296.41817383 -133.29882812 296.29882812 C-135.20489191 296.14288917 -137.11114086 295.98919517 -139.01757812 295.83789062 C-151.7354781 294.73704495 -151.7354781 294.73704495 -156.16333008 291.34057617 C-158.61756414 288.21300181 -158.48828101 286.31698465 -158.4609375 282.3671875 C-158.46092743 281.71150787 -158.46091736 281.05582825 -158.46090698 280.38027954 C-158.45384122 278.211092 -158.41574914 276.04379911 -158.375 273.875 C-158.35849761 272.33789645 -158.3425567 270.80078678 -158.32714844 269.26367188 C-158.11922496 253.1420874 -157.26382186 237.07087301 -156 221 C-155.93683594 220.19606812 -155.87367188 219.39213623 -155.80859375 218.56384277 C-154.17673759 198.06664945 -152.01506721 177.66292296 -149.0625 157.3125 C-148.94724976 156.49118591 -148.83199951 155.66987183 -148.71325684 154.82366943 C-146.66914736 140.42000579 -143.49985172 127.00513418 -135.8125 114.4375 C-135.3376416 113.64085937 -134.8627832 112.84421875 -134.37353516 112.0234375 C-122.45197957 92.30321412 -107.37132586 75.19515524 -91.125 58.9375 C-90.20847656 58.00873047 -89.29195312 57.07996094 -88.34765625 56.12304688 C-82.21222182 49.97466849 -75.82050865 44.37387238 -69 39 C-68.2898877 38.43063721 -67.57977539 37.86127441 -66.84814453 37.2746582 C-18.81713881 -1.07526507 -18.81713881 -1.07526507 0 0 Z " fill="#0E4559" transform="translate(564,204)"/>
<path d="M0 0 C1.02996094 0.11827148 2.05992187 0.23654297 3.12109375 0.35839844 C21.90511951 2.59540514 39.82114852 6.92378014 58 12 C58.95874023 12.26522461 59.91748047 12.53044922 60.90527344 12.80371094 C68.13585762 14.81539102 75.11917675 16.96244688 82 20 C83.45555734 20.590226 84.91368874 21.17416731 86.375 21.75 C88.25 22.5 90.125 23.25 92 24 C92.61166016 24.24234375 93.22332031 24.4846875 93.85351562 24.734375 C103.75320065 28.66725863 113.35428022 32.95729028 122.80810547 37.8671875 C125.26156237 39.13518037 127.72640775 40.37960329 130.19140625 41.625 C131.94056337 42.51993638 133.68926857 43.41575664 135.4375 44.3125 C136.69119385 44.94345581 136.69119385 44.94345581 137.97021484 45.5871582 C138.74187988 45.98765381 139.51354492 46.38814941 140.30859375 46.80078125 C140.99751709 47.15309814 141.68644043 47.50541504 142.39624023 47.8684082 C144 49 144 49 145 52 C143.92165092 54.53112493 142.78591314 56.88977338 141.5 59.3125 C140.75228873 60.75895157 140.00489884 62.20556931 139.2578125 63.65234375 C138.87786133 64.38050293 138.49791016 65.10866211 138.10644531 65.85888672 C137.08583212 67.83390387 136.09392121 69.81940022 135.1171875 71.81640625 C125.52848891 91.40229059 125.52848891 91.40229059 122.15136719 92.72290039 C119.4772155 93.0673355 118.45516479 92.53575816 116.12109375 91.2265625 C115.374646 90.81833252 114.62819824 90.41010254 113.85913086 89.98950195 C113.05999268 89.53921631 112.26085449 89.08893066 111.4375 88.625 C109.72040242 87.69096624 108.00160308 86.76005519 106.28125 85.83203125 C105.40339844 85.35717285 104.52554688 84.88231445 103.62109375 84.39306641 C60.18119834 61.3055065 11.0832834 49.7391336 -38 49.8125 C-39.30723022 49.81440338 -39.30723022 49.81440338 -40.64086914 49.81634521 C-53.19498553 49.85122737 -65.58746837 49.93388778 -78 52 C-79.65878174 52.27457031 -79.65878174 52.27457031 -81.35107422 52.5546875 C-115.43934997 58.37299454 -148.01834247 68.97947486 -180.74462891 79.91674805 C-184.11563587 81.0384788 -187.49212722 82.14122415 -190.875 83.2265625 C-192.69049327 83.88734865 -194.46809316 84.65071279 -196.234375 85.43359375 C-200.14781167 87.12983307 -204.1459771 88.29665694 -208.25 89.4375 C-213.01346655 90.76465719 -217.66728829 92.21998007 -222.30078125 93.953125 C-228.0966208 96.09231669 -233.96539929 97.74345238 -239.9375 99.3125 C-241.05503662 99.60882324 -242.17257324 99.90514648 -243.32397461 100.21044922 C-246.88056335 101.14848868 -250.43978734 102.07581643 -254 103 C-255.74651855 103.45560303 -255.74651855 103.45560303 -257.52832031 103.92041016 C-281.64865446 110.18364574 -305.48710798 115.29555994 -330.32348633 117.63549805 C-333.00638822 117.90148998 -335.6778787 118.1949657 -338.35424805 118.51489258 C-352.30532775 120.13004191 -366.15307565 120.35624813 -380.1875 120.3125 C-381.37187653 120.31100952 -382.55625305 120.30951904 -383.77651978 120.3079834 C-403.02352564 120.26455948 -421.9085776 119.49791867 -441 117 C-442.21091309 116.8448291 -443.42182617 116.6896582 -444.66943359 116.52978516 C-463.66487243 114.04020259 -482.26620649 110.37643662 -500.80029297 105.55957031 C-503.15444233 104.96071234 -505.51558854 104.39747245 -507.87890625 103.8359375 C-519.46886889 101.02495896 -530.86812855 97.62858709 -542.19296265 93.90014648 C-543.75984187 93.38757346 -545.32969246 92.88398728 -546.90249634 92.38989258 C-562.08170209 87.59605498 -562.08170209 87.59605498 -565.88891602 81.15625 C-566.25557373 80.4446875 -566.62223145 79.733125 -567 79 C-567.93980415 77.47687488 -568.88128041 75.95478054 -569.82421875 74.43359375 C-570.78682888 72.77294568 -571.74092734 71.10734145 -572.6875 69.4375 C-573.45308228 68.09123535 -573.45308228 68.09123535 -574.23413086 66.71777344 C-578.08563782 59.84351229 -581.64900962 52.85109875 -585.0625 45.75 C-585.51520264 44.8108374 -585.96790527 43.8716748 -586.43432617 42.90405273 C-589.04081996 37.37642871 -591.22538679 31.8489528 -593 26 C-592.31035156 26.28230469 -591.62070312 26.56460938 -590.91015625 26.85546875 C-586.66959011 28.52323503 -582.36177184 29.99087477 -578.05859375 31.48828125 C-574.797523 32.66322586 -571.62176696 33.99972851 -568.43359375 35.359375 C-561.60601426 38.2253712 -554.65304879 40.61407657 -547.625 42.9375 C-546.97281494 43.15377045 -546.32062988 43.37004089 -545.64868164 43.59286499 C-462.4562372 71.11739454 -367.20546255 80.53536888 -282 56 C-276.42862471 55.03106517 -273.7128367 57.3302457 -269.3359375 60.3984375 C-261.3292057 65.88800278 -253.71279207 67.3020772 -244 66 C-241.29273473 64.64822931 -239.50094998 63.6679333 -237.6875 61.25 C-236.01100369 55.76328482 -237.13725605 51.24820717 -239 46 C-237.75734375 45.70609375 -236.5146875 45.4121875 -235.234375 45.109375 C-220.14604855 41.41249978 -205.52177454 36.6456089 -190.82527161 31.64900208 C-190.10047104 31.40260483 -189.37567047 31.15620758 -188.62890625 30.90234375 C-187.55082954 30.53558784 -187.55082954 30.53558784 -186.45097351 30.16142273 C-180.17050284 28.03522241 -173.85167793 26.04492189 -167.5168457 24.08764648 C-164.67920235 23.21005529 -161.84728614 22.31891567 -159.01953125 21.41015625 C-154.35495455 19.9121978 -149.67897154 18.45228948 -145 17 C-144.25878906 16.76700195 -143.51757812 16.53400391 -142.75390625 16.29394531 C-96.22356179 1.79921147 -48.6425817 -5.75187313 0 0 Z " fill="#7EB2BC" transform="translate(734,584)"/>
<path d="M0 0 C0.6640625 1.78515625 0.6640625 1.78515625 1 4 C-0.0390625 5.74609375 -0.0390625 5.74609375 -1.625 7.4375 C-2.18832031 8.04722656 -2.75164062 8.65695312 -3.33203125 9.28515625 C-6.14961466 12.18192233 -8.98551141 15.04312942 -11.92578125 17.81640625 C-39.03224034 43.95993607 -54.30434337 78.63154615 -68 113 C-88.7295001 164.86475005 -88.7295001 164.86475005 -109 175 C-108.48955359 179.38519873 -107.09317571 181.35665898 -104.125 184.5625 C-86.82514003 205.03538053 -78.61465724 233.029185 -73.59985352 258.89086914 C-66.28925108 296.28358345 -43.14897075 327.39143 -16 353 C-16.33 353.99 -16.66 354.98 -17 356 C-45.58226385 355.0058343 -76.98296921 343.34752566 -99 325 C-99.50692383 324.58057129 -100.01384766 324.16114258 -100.53613281 323.72900391 C-124.41777801 303.69392243 -135.5691442 276.13982822 -141.16137695 246.0949707 C-143.78192511 232.32936655 -148.4633039 212.14601193 -160 203 C-162.14703124 202.72923699 -162.14703124 202.72923699 -164.25 203.25 C-165.4875 203.4975 -166.725 203.745 -168 204 C-165.73669907 209.67334099 -162.88116763 214.76444373 -159.75 220 C-156.20082746 226.04575449 -152.77405856 232.11014138 -149.75 238.4375 C-149.18796875 239.61183594 -148.6259375 240.78617188 -148.046875 241.99609375 C-147 245 -147 245 -147.140625 247.28515625 C-148 249 -148 249 -151 251 C-155.86138719 251.91077084 -160.68493472 252.24420397 -165.625 252.375 C-166.89601563 252.42398438 -168.16703125 252.47296875 -169.4765625 252.5234375 C-173.99090084 251.852793 -175.02051452 250.3883834 -178 247 C-179.31977035 244.95775328 -180.56462927 242.8657027 -181.7421875 240.73828125 C-182.07364777 240.14758347 -182.40510803 239.55688568 -182.74661255 238.94828796 C-183.7973325 237.07398278 -184.83706406 235.19391025 -185.875 233.3125 C-190.5292827 224.90911687 -195.27518897 216.74117431 -201 209 C-201.99 209.33 -202.98 209.66 -204 210 C-203.97381592 211.22106445 -203.94763184 212.44212891 -203.9206543 213.70019531 C-203.83012436 218.23239809 -203.7727406 222.76452106 -203.7253418 227.29736328 C-203.70020396 229.25876303 -203.66608835 231.22006916 -203.62280273 233.18115234 C-203.56211792 236.00121144 -203.53378359 238.82003194 -203.51171875 241.640625 C-203.47300911 242.95489471 -203.47300911 242.95489471 -203.43351746 244.29571533 C-203.43070989 250.39585539 -203.43070989 250.39585539 -206.39257812 253.5390625 C-211.84223161 256.5925013 -217.58460949 256.21320789 -223.6875 256.25 C-224.9878418 256.2809375 -224.9878418 256.2809375 -226.31445312 256.3125 C-227.14267578 256.31765625 -227.97089844 256.3228125 -228.82421875 256.328125 C-229.57791748 256.3374707 -230.33161621 256.34681641 -231.1081543 256.35644531 C-232.04461792 256.18000488 -232.04461792 256.18000488 -233 256 C-234.89462714 253.1580593 -235.32790706 252.10657962 -235.79223633 248.89550781 C-235.97274788 247.66172394 -235.97274788 247.66172394 -236.15690613 246.40301514 C-236.27657242 245.51205139 -236.39623871 244.62108765 -236.51953125 243.703125 C-236.71226372 242.2997287 -236.71226372 242.2997287 -236.90888977 240.86798096 C-238.27423569 230.52323932 -239.07117491 220.16310113 -239.6875 209.75 C-239.78130951 208.20854813 -239.78130951 208.20854813 -239.87701416 206.63595581 C-241.01611112 187.35314235 -241.32613524 168.08007461 -241.36880875 148.76899719 C-241.37499687 146.56361659 -241.38627827 144.35830861 -241.39852905 142.1529541 C-241.41935357 138.01975071 -241.41141558 133.88714398 -241.3984375 129.75390625 C-241.40437424 128.50623978 -241.41031097 127.2585733 -241.41642761 125.97309875 C-241.40710709 124.83156845 -241.39778656 123.69003815 -241.38818359 122.51391602 C-241.38579681 121.51667007 -241.38341003 120.51942413 -241.38095093 119.49195862 C-241 117 -241 117 -239.69839478 115.17808533 C-236.7809855 113.15443505 -233.41941266 113.60738017 -230 113.6875 C-229.20400391 113.69950439 -228.40800781 113.71150879 -227.58789062 113.72387695 C-212.76969294 114.06474192 -198.97277477 115.99559517 -184.81640625 120.43457031 C-183.36473718 120.88646084 -181.90253898 121.30447851 -180.4375 121.7109375 C-176.77974059 122.777784 -173.37869003 124.24842856 -169.98046875 125.9609375 C-169.2548877 126.32405029 -168.52930664 126.68716309 -167.78173828 127.0612793 C-166.31958499 127.80329394 -164.86080913 128.55200751 -163.40576172 129.30786133 C-159.88876366 131.29994099 -159.88876366 131.29994099 -156 132 C-155.6189209 131.25766113 -155.2378418 130.51532227 -154.84521484 129.75048828 C-150.59073426 121.47160211 -146.30899691 113.20717529 -142.01275635 104.94989014 C-141.06333091 103.1219329 -140.11818148 101.29175652 -139.17333984 99.46142578 C-128.38572018 78.61024929 -116.89605568 57.57165141 -100 41 C-99.24589844 40.19949219 -98.49179687 39.39898437 -97.71484375 38.57421875 C-74.26411398 13.96542825 -33.94808408 -2.02339574 0 0 Z " fill="#0D4559" transform="translate(967,260)"/>
<path d="M0 0 C2.35797649 0.00533369 4.7157599 0.00003187 7.07373047 -0.00634766 C15.01704567 -0.01027033 22.93418195 0.14772169 30.86669922 0.57568359 C31.59512024 0.61442596 32.32354126 0.65316833 33.07403564 0.69308472 C38.36246634 1.00844844 43.53260255 1.68056429 48.74169922 2.63037109 C51.75767069 3.07614979 54.7068197 3.33130139 57.74560547 3.54833984 C64.05021667 4.04955546 70.12695507 5.15088148 76.31201172 6.44287109 C77.3078125 6.64332031 78.30361328 6.84376953 79.32958984 7.05029297 C82.60045526 7.71853429 85.86290202 8.41831506 89.12451172 9.13037109 C89.76429962 9.26866333 90.40408752 9.40695557 91.06326294 9.54943848 C102.17297367 11.97255029 112.92059809 15.10868261 123.68701172 18.75537109 C124.85879974 19.14986954 124.85879974 19.14986954 126.05426025 19.55233765 C164.23149625 32.44116725 200.71773643 50.01988793 233.12451172 74.13037109 C234.22865265 74.94160404 235.33281407 75.75280909 236.43701172 76.56396484 C243.15569779 81.5736828 249.70250715 86.74583322 256.12451172 92.13037109 C256.68992676 92.60410156 257.2553418 93.07783203 257.83789062 93.56591797 C259.66716791 95.10292629 261.49102002 96.64605661 263.31201172 98.19287109 C263.90989502 98.70011719 264.50777832 99.20736328 265.1237793 99.72998047 C269.17134387 103.20494081 272.88505202 106.85792465 276.37841797 110.89990234 C278.0771745 112.3503454 278.0771745 112.3503454 280.39013672 112.11474609 C284.08471787 110.78469688 287.08130478 108.77231376 290.31201172 106.56787109 C296.87735694 102.13037109 296.87735694 102.13037109 299.12451172 102.13037109 C300.87189521 111.54294352 302.40613095 120.91926795 303.52294922 130.43115234 C304.12531674 135.3431857 304.88902773 140.22864296 305.6394043 145.11987305 C307.27482547 155.79057698 308.76277572 166.33255157 309.12451172 177.13037109 C304.34111607 176.56761866 300.1203048 175.59503335 295.59716797 173.95068359 C294.39253906 173.51626953 293.18791016 173.08185547 291.94677734 172.63427734 C290.69347826 172.17476156 289.44022333 171.71512536 288.18701172 171.25537109 C286.95015625 170.80806641 285.71330078 170.36076172 284.43896484 169.89990234 C279.51981947 168.11733657 274.6071802 166.31995697 269.71435547 164.46630859 C266.04246796 163.09983903 262.34740446 161.8504788 258.62451172 160.63037109 C254.10389997 159.13977301 249.61650092 157.60164298 245.17529297 155.88818359 C240.53715482 154.17428112 235.82191643 152.67268564 231.12451172 151.13037109 C231.12451172 150.14037109 231.12451172 149.15037109 231.12451172 148.13037109 C233.36111642 146.30740531 235.55607643 144.67940069 237.93701172 143.06787109 C238.9009082 142.39788086 238.9009082 142.39788086 239.88427734 141.71435547 C242.61193581 139.82336737 245.36286799 137.97146691 248.12451172 136.13037109 C248.12451172 135.47037109 248.12451172 134.81037109 248.12451172 134.13037109 C246.61664011 132.75545811 245.03911411 131.45672648 243.43701172 130.19287109 C239.79260675 127.28844683 236.21981372 124.35703183 232.71899414 121.27905273 C195.60960159 88.91256581 148.94743288 67.21479159 102.12451172 53.13037109 C101.44565918 52.9226709 100.76680664 52.7149707 100.06738281 52.50097656 C51.9584164 37.88892051 -2.51466615 35.15848783 -51.87548828 45.13037109 C-53.11041016 45.36755859 -54.34533203 45.60474609 -55.61767578 45.84912109 C-59.37692509 46.58030701 -63.12667228 47.34748582 -66.87548828 48.13037109 C-67.60445313 48.28119141 -68.33341797 48.43201172 -69.08447266 48.58740234 C-77.47900685 50.33596747 -85.68753847 52.18345079 -93.77539062 55.07910156 C-96.96248888 56.15987374 -100.16397851 57.06200625 -103.41064453 57.94677734 C-110.45968245 59.94721739 -117.25351407 62.37019589 -124.06298828 65.06787109 C-125.2627832 65.54313232 -126.46257812 66.01839355 -127.69873047 66.50805664 C-149.40817698 75.20945915 -169.94876282 85.90813174 -189.87548828 98.13037109 C-190.59043457 98.56865234 -191.30538086 99.00693359 -192.04199219 99.45849609 C-204.55584956 107.19216667 -216.55461723 115.73682625 -227.87548828 125.13037109 C-228.88095703 125.96181641 -229.88642578 126.79326172 -230.92236328 127.64990234 C-247.80555501 141.71454823 -264.38130466 156.73587526 -277.87548828 174.13037109 C-278.92864389 175.43369377 -279.98346435 176.73567214 -281.03955078 178.03662109 C-291.47016546 191.01250538 -300.33601107 204.85582454 -308.87548828 219.13037109 C-313.55444101 218.52914747 -317.46241299 217.23321248 -321.80517578 215.40771484 C-322.4403714 215.14277725 -323.07556702 214.87783966 -323.73001099 214.60487366 C-325.73939662 213.76516667 -327.74493672 212.91668875 -329.75048828 212.06787109 C-331.12003454 211.49371765 -332.48982403 210.92014403 -333.85986328 210.34716797 C-337.20124385 208.94826265 -340.53923657 207.54147166 -343.87548828 206.13037109 C-342.60081495 201.88639906 -341.00411291 198.39164106 -338.64501953 194.64599609 C-338.00628906 193.62763672 -337.36755859 192.60927734 -336.70947266 191.56005859 C-336.04238281 190.51076172 -335.37529297 189.46146484 -334.68798828 188.38037109 C-334.04023438 187.34654297 -333.39248047 186.31271484 -332.72509766 185.24755859 C-313.21818814 154.3015323 -288.99619749 124.69669049 -260.87548828 101.13037109 C-259.99505859 100.36080078 -259.11462891 99.59123047 -258.20751953 98.79833984 C-225.45061725 70.30245455 -187.19943221 46.30037367 -146.87548828 30.13037109 C-145.90869141 29.73849609 -144.94189453 29.34662109 -143.94580078 28.94287109 C-140.60586156 27.62424574 -137.24704833 26.36512925 -133.87548828 25.13037109 C-133.06998535 24.83372559 -132.26448242 24.53708008 -131.43457031 24.23144531 C-89.5882676 8.93074764 -44.61969393 -0.11942681 0 0 Z " fill="#7BAC80" transform="translate(512.87548828125,107.86962890625)"/>
<path d="M0 0 C2.81451114 -0.00969435 5.62828596 -0.04084516 8.44262695 -0.07226562 C21.25769205 -0.14695502 33.52740284 1.05533349 46.14770508 3.24023438 C47.35789307 3.44438965 48.56808105 3.64854492 49.81494141 3.85888672 C85.36323467 10.14783976 122.02064863 22.69552328 153.14770508 41.24023438 C151.65813493 45.40637588 149.55802302 48.99371762 147.14770508 52.67773438 C146.75180176 53.28609131 146.35589844 53.89444824 145.94799805 54.52124023 C139.81841137 63.86459491 133.39362251 72.93462909 126.27270508 81.55273438 C125.59425537 82.38913452 125.59425537 82.38913452 124.90209961 83.24243164 C123.16834246 85.29338681 121.58966123 87.00232653 119.21020508 88.28320312 C115.98564098 88.21602471 113.83260759 86.78136294 111.02270508 85.24023438 C102.6821857 80.81978154 93.97889511 77.53568546 85.14770508 74.24023438 C84.47723145 73.98604736 83.80675781 73.73186035 83.1159668 73.4699707 C60.1666262 64.78060499 35.0535836 58.16228495 10.40161133 58.03710938 C9.48115021 58.0301857 8.56068909 58.02326202 7.61233521 58.01612854 C4.64491497 57.9988839 1.67767312 57.99253713 -1.28979492 57.99023438 C-2.300289 57.98889496 -3.31078308 57.98755554 -4.35189819 57.98617554 C-19.74409484 57.99060785 -34.65214934 58.64493522 -49.85229492 61.24023438 C-51.24135549 61.44901859 -52.63066256 61.65617247 -54.02026367 61.86132812 C-82.40643441 66.5200167 -109.87884323 77.21048236 -136.33666992 88.14648438 C-159.2269801 97.60036858 -182.18130475 106.9138194 -205.83618164 114.29785156 C-207.80706015 114.91365139 -209.77501403 115.53891261 -211.73950195 116.17480469 C-237.05202781 124.36094617 -264.22577197 130.15698558 -290.85229492 131.24023438 C-292.0145459 131.30388184 -293.17679687 131.3675293 -294.37426758 131.43310547 C-310.32719964 132.24475663 -323.5867826 132.13260826 -337.78344727 124.36474609 C-339.82697984 123.25399426 -341.89484692 122.23918687 -343.99682617 121.24414062 C-348.00037162 119.33723296 -351.92916637 117.30654717 -355.85229492 115.24023438 C-356.49199219 114.90975098 -357.13168945 114.57926758 -357.79077148 114.23876953 C-373.39368355 106.13168137 -387.33636211 95.42823017 -400.85229492 84.24023438 C-399.90245798 79.47542452 -397.8640309 76.05753743 -393.85229492 73.24023438 C-390.09629378 72.63213895 -386.59747595 73.22374906 -382.85620117 73.77929688 C-380.59956694 74.03610455 -378.34183864 74.28343294 -376.08325195 74.52246094 C-374.89983215 74.65092407 -373.71641235 74.77938721 -372.49713135 74.91174316 C-366.39984417 75.46126172 -360.31105393 75.53313361 -354.19213867 75.57617188 C-352.9451973 75.58515503 -351.69825592 75.59413818 -350.41352844 75.60339355 C-346.53884311 75.62032944 -342.66451039 75.62064687 -338.78979492 75.61523438 C-337.43803914 75.61534681 -336.08628336 75.61546897 -334.73452759 75.61560059 C-315.95969142 75.60200555 -297.59852846 75.04973539 -279.06762695 71.80029297 C-275.80294775 71.2316389 -272.53369688 70.73795146 -269.25463867 70.25976562 C-258.5423019 68.65578375 -248.1985248 66.47819645 -237.81713867 63.39257812 C-234.31583919 62.3523309 -230.79821904 61.51386175 -227.22729492 60.74023438 C-221.66876164 59.50267413 -216.29369535 57.88707484 -210.87670898 56.14868164 C-206.43475206 54.72381221 -201.97537771 53.41824798 -197.47729492 52.17773438 C-192.77911375 50.85044552 -188.32994254 49.30926853 -183.83276367 47.42382812 C-179.7795024 45.81421061 -175.66224537 44.41144266 -171.53979492 42.99023438 C-161.71171062 39.58927039 -152.00154693 35.91347973 -142.29614258 32.17919922 C-133.38740721 28.75632247 -124.47966839 25.37276091 -115.39916992 22.42773438 C-112.5185633 21.4633022 -109.66232683 20.45898764 -106.80541992 19.42773438 C-88.83946284 12.9764638 -70.60191643 7.86429316 -51.85229492 4.24023438 C-51.20131836 4.1102002 -50.5503418 3.98016602 -49.87963867 3.84619141 C-47.74775087 3.42330058 -45.61322907 3.01715223 -43.47729492 2.61523438 C-42.21143555 2.37546875 -40.94557617 2.13570312 -39.64135742 1.88867188 C-26.58106511 -0.10735984 -13.17989185 0.0272805 0 0 Z " fill="#79ACB9" transform="translate(696.852294921875,656.759765625)"/>
<path d="M0 0 C4.18400666 1.6055787 7.76535631 3.6064355 11.5625 6 C15.71996589 8.69624487 15.71996589 8.69624487 20.14854431 10.87039185 C22 12 22 12 22.57472229 13.77633667 C22.61008591 14.49322662 22.64544952 15.21011658 22.68188477 15.94873047 C22.73196182 16.76493866 22.78203888 17.58114685 22.83363342 18.42208862 C22.86919846 19.31147125 22.90476349 20.20085388 22.94140625 21.1171875 C23.02212624 22.50673141 23.02212624 22.50673141 23.10447693 23.92434692 C23.27534423 26.90722637 23.42058144 29.89061419 23.5625 32.875 C24.30350115 47.41608635 25.49818722 61.64750611 28 76 C28.19730713 77.13405273 28.39461426 78.26810547 28.59790039 79.43652344 C29.91857848 86.65361631 31.46676947 93.82565809 33 101 C33.22606934 102.0936084 33.45213867 103.1872168 33.68505859 104.31396484 C43.93495017 153.30944516 65.20366845 199.55020628 93 241 C93.4522998 241.67901367 93.90459961 242.35802734 94.37060547 243.05761719 C106.28991449 260.90484667 119.77844882 277.42583691 134.37109375 293.1484375 C136.84974149 295.83701528 139.27080685 298.56833042 141.6875 301.3125 C144.91711326 304.91498157 148.28351824 308.11686349 151.98046875 311.23046875 C154.20630598 313.18076714 156.24959756 315.25347156 158.3125 317.375 C162.73754805 321.8452016 167.46431304 325.78497876 172.38232422 329.69873047 C174.15697013 331.12626785 175.90927133 332.57858351 177.66015625 334.03515625 C186.43374528 341.30789874 195.44019262 348.09211996 204.84667969 354.52490234 C206.97117764 355.98025571 209.08316164 357.452588 211.1953125 358.92578125 C222.77243201 366.90831177 234.90811638 373.76711449 247.24902344 380.49316406 C249.49376005 381.72270918 251.72346373 382.97204851 253.9453125 384.2421875 C274.73839721 395.86894716 297.17327493 403.72974479 319.78393555 410.93945312 C322.729289 411.91072887 325.62339063 412.96474363 328.5234375 414.0625 C334.75337342 416.35788907 341.11077069 417.95646343 347.5625 419.5 C348.81667725 419.80188232 350.07085449 420.10376465 351.36303711 420.41479492 C362.85349551 423.10319122 374.39808855 424.9722689 386.08227539 426.57714844 C389.08601813 427.01246619 392.0720263 427.51691324 395.0625 428.03515625 C427.17288266 433.43581037 461.46786142 432.51076369 493.75 429.1875 C494.55673157 429.10481873 495.36346313 429.02213745 496.19464111 428.93695068 C507.22410912 427.77584959 518.10598354 426.06636568 529 424 C530.09151367 423.7930249 531.18302734 423.5860498 532.30761719 423.37280273 C544.29029193 421.04500169 556.04732194 418.37132171 567.69140625 414.69873047 C570.65794299 413.8008637 573.64595314 412.98785518 576.6328125 412.16015625 C583.81253748 410.11446431 590.77800733 407.66247189 597.75 405 C598.36806519 404.76456482 598.98613037 404.52912964 599.6229248 404.28656006 C628.28982604 393.32428879 656.1883661 379.62913256 682 363 C682.64582031 362.58685547 683.29164063 362.17371094 683.95703125 361.74804688 C714.498968 342.1228309 744.71887555 317.78394284 768.27734375 290 C770.37372279 287.56610869 772.5639738 285.22865575 774.75 282.875 C780.009961 277.09857758 784.83853248 271.04804222 789.58349609 264.84472656 C790.97706936 263.02986279 792.38779786 261.22945974 793.80078125 259.4296875 C808.15781377 240.94298619 820.34452227 220.81594004 831 200 C831.4945166 199.03690918 831.9890332 198.07381836 832.49853516 197.08154297 C840.45396176 181.4337424 846.91115616 165.44667387 852.91455078 148.97607422 C854.25234635 145.30811922 855.62268655 141.65326748 857 138 C862.02518791 138.67307458 866.97164705 139.54398845 871.9375 140.5625 C872.62134766 140.70107422 873.30519531 140.83964844 874.00976562 140.98242188 C875.67353986 141.31983064 877.33682315 141.65965879 879 142 C878.23955009 146.28992939 877.04226904 150.40877809 875.75 154.5625 C875.55792969 155.20251953 875.36585938 155.84253906 875.16796875 156.50195312 C870.91588666 170.20756365 864.32579242 183.16046612 858.30761719 196.15136719 C857.20531583 198.55272123 856.12903335 200.96206157 855.0703125 203.3828125 C846.5755609 222.54955184 835.05450222 240.87864549 823 258 C822.52030762 258.68787598 822.04061523 259.37575195 821.54638672 260.08447266 C814.16399606 270.63838485 806.3703571 280.77607523 798.03759766 290.59741211 C796.48137789 292.43239398 794.93646678 294.27517612 793.39599609 296.12329102 C786.4918902 304.35242659 779.20492686 312.08010069 771.57128906 319.63452148 C769.73172541 321.45559087 767.90052859 323.28477504 766.0703125 325.11523438 C760.703062 330.4661042 755.3310134 335.75497279 749.55761719 340.67211914 C747.55534126 342.37907506 745.66214767 344.1932463 743.75 346 C736.42020808 352.61827128 728.37640557 358.34849635 720.43310547 364.20019531 C718.27878828 365.79377612 716.13833651 367.40338693 714.00390625 369.0234375 C705.4136376 375.50577673 696.46888464 381.20402704 687.21142578 386.68554688 C685.14073485 387.91634837 683.08272332 389.16572405 681.02734375 390.421875 C652.1745415 407.92199158 621.76158197 420.81727635 590 432 C588.845 432.41507813 587.69 432.83015625 586.5 433.2578125 C560.5371977 442.31063172 532.2700389 447.82290809 505 451 C503.85692383 451.13535156 502.71384766 451.27070312 501.53613281 451.41015625 C423.13956455 460.33301611 342.19832858 449.56305222 242 404 C241.28054199 403.64228516 240.56108398 403.28457031 239.81982422 402.91601562 C156.91046415 361.2818781 90.59096828 290.01942857 19.9375 142.5 C19.71352539 141.83374603 19.48955078 141.16749207 19.25878906 140.48104858 C10.88939264 115.43698219 5.74145076 89.38737585 2.6875 63.1875 C2.56580444 62.1541452 2.56580444 62.1541452 2.44165039 61.09991455 C0.61835179 45.38595952 -0.16535858 29.75398411 -0.0625 13.9375 C-0.05745983 12.56966315 -0.0529015 11.20182444 -0.04882812 9.83398438 C-0.03724493 6.55593933 -0.02094052 3.27799625 0 0 Z " fill="#B1B2B6" transform="translate(65,483)"/>
<path d="M0 0 C5.51507621 0.62008132 10.48645709 1.95635974 15.75 3.6875 C17.44266055 4.23322116 19.13537027 4.77878982 20.828125 5.32421875 C22.11686523 5.7426001 22.11686523 5.7426001 23.43164062 6.16943359 C27.44755946 7.46811761 31.47395672 8.73313057 35.5 10 C37.0911975 10.50244056 38.68234329 11.00504495 40.2734375 11.5078125 C43.36156858 12.48307854 46.45012683 13.45697299 49.5390625 14.4296875 C62.70603156 18.57820387 75.85418899 22.78496837 89 27 C85.3429012 30.80804847 81.50430058 34.10812243 77.3125 37.3125 C76.73177734 37.76689453 76.15105469 38.22128906 75.55273438 38.68945312 C71.2465343 42 71.2465343 42 69 42 C76.90149834 51.32427618 85.27767238 59.58444448 95 67 C95.58168945 67.44746582 96.16337891 67.89493164 96.76269531 68.35595703 C117.76079717 84.48469937 140.12208466 98.73174664 164.08154297 110.08789062 C166.12547583 111.05965611 168.15837818 112.05251486 170.19140625 113.046875 C179.61079111 117.61625137 189.12343979 121.53935646 199 125 C200.29671631 125.4640625 200.29671631 125.4640625 201.61962891 125.9375 C221.15520574 132.89919503 240.94120945 137.74877936 261.375 141.25 C262.2515625 141.40114258 263.128125 141.55228516 264.03125 141.70800781 C282.32787476 144.66187252 300.49025973 145.3753528 319 145.3125 C320.17174774 145.31001251 321.34349548 145.30752502 322.55075073 145.30496216 C379.09146399 145.11939313 434.15678955 132.6505993 485.0625 107.875 C485.8369043 107.49839233 486.61130859 107.12178467 487.40917969 106.73376465 C515.41555178 93.07906764 545.75892295 76.24107705 568 54 C573.15474055 54.4168243 577.15676812 55.73339685 581.80859375 57.94140625 C582.42017838 58.22853989 583.031763 58.51567352 583.66188049 58.81150818 C585.5913442 59.7198045 587.5143805 60.64085951 589.4375 61.5625 C590.75415189 62.18510283 592.07120598 62.80685588 593.38867188 63.42773438 C596.59715326 64.94203367 599.80000765 66.46782854 603 68 C601.61753426 71.14079339 600.04189761 73.16500251 597.54296875 75.50390625 C596.84937256 76.15649414 596.15577637 76.80908203 595.44116211 77.48144531 C594.32559937 78.51156738 594.32559937 78.51156738 593.1875 79.5625 C592.41994385 80.27631836 591.6523877 80.99013672 590.86157227 81.72558594 C539.88168388 128.8590367 474.1379731 162.49922733 406 176 C404.16919799 176.37855412 402.33846671 176.75745051 400.5078125 177.13671875 C391.69295322 178.92288974 382.84580706 180.3893163 373.9375 181.625 C373.13666992 181.73610107 372.33583984 181.84720215 371.51074219 181.96166992 C368.67653989 182.33530984 365.8398514 182.67178232 363 183 C362.30800507 183.08224823 361.61601013 183.16449646 360.90304565 183.24923706 C347.97217752 184.76249835 335.2023781 185.36360053 322.1875 185.3125 C321.26233582 185.31134186 320.33717163 185.31018372 319.38397217 185.30899048 C302.41899505 185.26735172 285.83380965 184.14345916 269 182 C267.13933639 181.78113539 265.27866029 181.56237704 263.41796875 181.34375 C178.1108041 170.74868375 100.7670946 128.84505823 41 68 C37.18913799 69.36345689 34.20215324 71.11836734 30.9375 73.5 C28.02599659 75.61745702 25.23586866 77.4318187 22 79 C10.12303825 38.4265611 10.12303825 38.4265611 5.09155273 19.54443359 C3.75864862 14.58911159 2.28481722 9.73447111 0.55737305 4.90136719 C0 3 0 3 0 0 Z " fill="#7CAC80" transform="translate(197,702)"/>
<path d="M0 0 C0.67750305 0.10654907 1.3550061 0.21309814 2.05303955 0.32287598 C29.47459317 4.68456207 58.57088156 10.21566495 84.265625 20.89453125 C86.86595388 21.94580707 89.48948902 22.90809037 92.12768555 23.859375 C109.91285269 30.32262817 127.2370203 38.23282992 144 47 C145.07636719 47.55945313 146.15273438 48.11890625 147.26171875 48.6953125 C160.6076438 55.75404285 173.55784285 63.44798566 186 72 C187.27821336 72.86392146 188.55688693 73.72716228 189.8359375 74.58984375 C212.52711313 89.95785912 233.87636646 107.35638851 253 127 C255.79725696 129.81559963 258.61729123 132.60620281 261.453125 135.3828125 C267.96395292 141.78269434 274.25570256 148.17208614 279.9140625 155.35546875 C282.10467056 158.13270032 284.38929807 160.81132687 286.6875 163.5 C296.5976306 175.37360422 305.59109419 188.02796757 314 201 C314.72960937 202.03511719 315.45921875 203.07023438 316.2109375 204.13671875 C318 207 318 207 318 210 C317.27554688 210.38671875 316.55109375 210.7734375 315.8046875 211.171875 C309.48302047 214.54333375 309.48302047 214.54333375 303.4375 218.375 C301 220 301 220 299 220 C297.41383252 217.82207004 295.94665251 215.64349484 294.5 213.375 C293.5915462 211.98456328 292.68134852 210.5952646 291.76953125 209.20703125 C291.30627441 208.5001416 290.84301758 207.79325195 290.36572266 207.06494141 C283.35829945 196.46987786 275.5660735 186.57784494 267.47509766 176.79541016 C266.20101623 175.24466623 264.9480691 173.67660306 263.69921875 172.10546875 C254.46447673 160.50551974 244.01071095 149.93745306 233.5625 139.4375 C232.92497803 138.79530518 232.28745605 138.15311035 231.63061523 137.49145508 C227.25107471 133.12672762 222.69367433 129.0232354 218 125 C217.45351807 124.52651123 216.90703613 124.05302246 216.34399414 123.56518555 C209.34976784 117.51352975 202.22162641 111.72169489 194.74169922 106.2734375 C192.77944504 104.83874199 190.82968948 103.38775038 188.87890625 101.9375 C179.2883494 94.85594091 169.48039543 88.36932405 159.21582031 82.30859375 C157.01079362 81.00637437 154.81352105 79.69181743 152.6171875 78.375 C148.43427955 75.87651309 144.22548711 73.42568416 140 71 C138.88496094 70.35804688 137.76992188 69.71609375 136.62109375 69.0546875 C118.35042305 58.93489539 98.72286532 50.51282534 78.99462891 43.69677734 C77.07511951 43.02624126 75.16804252 42.32043375 73.26171875 41.61328125 C64.95859869 38.53770952 56.58340233 36.15901531 48 34 C46.17082031 33.52433594 46.17082031 33.52433594 44.3046875 33.0390625 C3.94155135 22.67891462 -36.33130749 17.98168155 -78 19 C-79.05010254 19.01933594 -80.10020508 19.03867188 -81.18212891 19.05859375 C-95.3941331 19.33617993 -109.27682667 20.18260146 -123.29882812 22.54541016 C-126.2434926 23.04097824 -129.19161615 23.51147529 -132.140625 23.98046875 C-142.82487077 25.69756489 -153.46554825 27.50560889 -164 30 C-164.75732422 30.17644043 -165.51464844 30.35288086 -166.29492188 30.53466797 C-176.05034977 32.82121537 -185.50713658 35.34357787 -194.890625 38.87890625 C-197.84398515 39.94374841 -200.77244556 40.78569051 -203.8125 41.5625 C-207.91775394 42.63343581 -211.57405224 44.05406593 -215.40625 45.85546875 C-217.97303585 46.98810166 -220.57378391 47.96097276 -223.21264648 48.91137695 C-242.34074255 55.8234087 -260.35431217 64.93961087 -278 75 C-279.02915527 75.58515381 -279.02915527 75.58515381 -280.07910156 76.18212891 C-302.07650016 88.78846104 -322.61193094 103.69639647 -342 120 C-342.55816406 120.46792969 -343.11632812 120.93585938 -343.69140625 121.41796875 C-350.10686587 126.80806333 -356.4026202 132.20659483 -362.234375 138.234375 C-363.95842251 139.95842251 -365.75144505 141.50382824 -367.625 143.0625 C-376.96325348 151.11144826 -385.20508131 160.73596591 -392.875 170.3515625 C-395.11143259 173.13888106 -397.42806856 175.8461379 -399.75 178.5625 C-406.27274408 186.38777347 -412.16675349 194.65324077 -418 203 C-418.50289551 203.71929687 -419.00579102 204.43859375 -419.52392578 205.1796875 C-442.58064246 238.40691892 -462.9063443 276.11638565 -473.375 315.375 C-473.69223022 316.49624268 -473.69223022 316.49624268 -474.01586914 317.64013672 C-475.21902854 321.92048077 -476.26496082 326.19121574 -477.16015625 330.546875 C-480.39331506 345.24072424 -480.39331506 345.24072424 -485.14453125 348.859375 C-488.58896074 350.9725161 -492.28419468 352.43074305 -496 354 C-497.9946495 355.27836638 -499.95827891 356.60751032 -501.875 358 C-503.07769531 358.86625 -503.07769531 358.86625 -504.3046875 359.75 C-504.86414063 360.1625 -505.42359375 360.575 -506 361 C-506.66 360.67 -507.32 360.34 -508 360 C-505.81633063 347.85114495 -503.46125996 335.85986965 -500 324 C-499.70013184 322.96407715 -499.40026367 321.9281543 -499.09130859 320.86083984 C-498.04637565 317.25950829 -496.99374099 313.66053072 -495.9375 310.0625 C-495.59686523 308.90024902 -495.25623047 307.73799805 -494.90527344 306.54052734 C-493.14203741 300.59754631 -491.28224195 294.76257461 -489 289 C-488.67249756 288.14784912 -488.34499512 287.29569824 -488.00756836 286.41772461 C-469.0512833 237.2053428 -442.35147737 192.94105425 -408 153 C-407.42121094 152.319375 -406.84242188 151.63875 -406.24609375 150.9375 C-395.02726383 137.89104115 -383.10428127 124.89496303 -370.00390625 113.7265625 C-367.74766614 111.78258954 -365.56636107 109.76676482 -363.375 107.75 C-357.77256758 102.70184172 -351.88465799 98.07755575 -345.91259766 93.47998047 C-343.98739724 91.9902479 -342.0770228 90.4830052 -340.16796875 88.97265625 C-315.56512266 69.65111254 -288.84817086 54.10053675 -261 40 C-260.28231445 39.63310059 -259.56462891 39.26620117 -258.82519531 38.88818359 C-232.82187244 25.69352372 -204.63380447 16.36147016 -176.34863281 9.5703125 C-174.13153472 9.03194024 -171.92058108 8.47435585 -169.7109375 7.90625 C-160.86213561 5.63196571 -151.98874867 3.64989068 -143 2 C-141.72511719 1.75378906 -140.45023437 1.50757813 -139.13671875 1.25390625 C-93.98014823 -6.9990856 -45.26008614 -7.15879371 0 0 Z " fill="#B1B2B6" transform="translate(580,59)"/>
<path d="M0 0 C2 2 2 2 2.28515625 4.68554688 C1.95295362 8.54683357 0.90048679 11.44253958 -0.5625 15.03125 C-0.82949203 15.695802 -1.09648407 16.360354 -1.37156677 17.04504395 C-1.94302287 18.46490756 -2.5189925 19.88296159 -3.09909058 21.29931641 C-4.61977732 25.01395218 -6.10634034 28.74224947 -7.59765625 32.46875 C-7.89382339 33.20617432 -8.18999054 33.94359863 -8.49513245 34.70336914 C-11.92523551 43.26348845 -15.07401407 51.91968181 -18.15332031 60.61132812 C-18.9994457 62.99843618 -19.85437889 65.38224326 -20.7109375 67.765625 C-23.0626041 74.33581751 -25.32257783 80.90168871 -27.24926758 87.61157227 C-27.96551638 89.89029163 -28.81301466 92.03512036 -29.7421875 94.234375 C-32.72990759 101.62200634 -35.07412128 109.22730003 -37.5 116.8125 C-37.97756183 118.29501944 -38.45542481 119.7774419 -38.93359375 121.25976562 C-42.09797277 131.08772953 -45.16277523 140.94396281 -48.16015625 150.82421875 C-48.45792969 151.76910156 -48.75570312 152.71398437 -49.0625 153.6875 C-49.36285156 154.66074219 -49.66320312 155.63398437 -49.97265625 156.63671875 C-51 159 -51 159 -54 161 C-62.23366146 161.84943801 -69.11236013 159.37800791 -76.8125 156.6875 C-78.1408614 156.2326498 -79.46931363 155.7780648 -80.79785156 155.32373047 C-169.3999244 124.78009828 -169.3999244 124.78009828 -190 98 C-191.4375 94.5 -191.4375 94.5 -191 91 C-177.90094323 63.45198367 -136.92923729 45.38181425 -110.91162109 32.92333984 C-108.90591021 31.95455331 -106.9160384 30.95713903 -104.92578125 29.95703125 C-103.5968154 29.30374838 -102.26740381 28.65137132 -100.9375 28 C-99.77089844 27.4225 -98.60429687 26.845 -97.40234375 26.25 C-93.61245587 24.85761869 -91.00192251 24.46192639 -87 25 C-83.95786673 28.06300398 -83.45744178 30.86427968 -82.9375 35.06640625 C-82.78224854 36.26402588 -82.62699707 37.46164551 -82.46704102 38.69555664 C-82.31291748 39.97164795 -82.15879395 41.24773926 -82 42.5625 C-81.82957684 43.89139219 -81.65760869 45.22008711 -81.48413086 46.54858398 C-81.14069346 49.17911053 -80.80116663 51.81000745 -80.46435547 54.44140625 C-78.82019993 67.04141207 -76.58228041 79.55142331 -74.375 92.0625 C-74.15658447 93.30781494 -73.93816895 94.55312988 -73.71313477 95.83618164 C-73.50615967 96.99496826 -73.29918457 98.15375488 -73.0859375 99.34765625 C-72.9007959 100.38929932 -72.7156543 101.43094238 -72.52490234 102.50415039 C-72.11339915 104.98450144 -72.11339915 104.98450144 -71 107 C-68.32708618 97.82704576 -65.67025261 88.65302877 -63.27734375 79.40234375 C-59.53201255 64.93331372 -55.48523058 50.58237277 -51.11941528 36.28768921 C-50.54280902 34.39741077 -49.96991183 32.50599669 -49.40084839 30.61343384 C-48.5966703 27.94556191 -47.77722298 25.28287038 -46.953125 22.62109375 C-46.5956292 21.42457687 -46.5956292 21.42457687 -46.23091125 20.20388794 C-44.61918892 15.08363957 -42.81768438 10.6253815 -37.94140625 7.8125 C-31.48654211 5.60788302 -24.93138086 3.88295327 -18.3125 2.25 C-16.97650757 1.91548828 -16.97650757 1.91548828 -15.61352539 1.57421875 C-10.28155463 0.31275371 -5.48200905 -0.41838004 0 0 Z " fill="#0D4559" transform="translate(245,362)"/>
<path d="M0 0 C1.58796387 0.2160791 1.58796387 0.2160791 3.20800781 0.43652344 C9.14513532 1.24990437 15.07471711 2.10453924 21 3 C21 3.99 21 4.98 21 6 C19.14157831 7.6850501 17.32855704 9.15025997 15.3125 10.625 C14.72017578 11.06739014 14.12785156 11.50978027 13.51757812 11.96557617 C11.68749445 13.32334106 9.84599455 14.66397084 8 16 C7.00355469 16.72574219 6.00710938 17.45148437 4.98046875 18.19921875 C-48.3665156 56.02453793 -110.31162673 78.7944957 -175 87 C-176.27504395 87.17063965 -177.55008789 87.3412793 -178.86376953 87.51708984 C-190.59709101 89.01172601 -202.18164275 89.32204478 -214 89.25 C-215.41380447 89.24435028 -215.41380447 89.24435028 -216.85617065 89.23858643 C-253.17640791 89.06904672 -291.99788032 85.97626203 -326 72 C-326 71.67 -326 71.34 -326 71 C-324.98164063 70.96044189 -323.96328125 70.92088379 -322.9140625 70.88012695 C-312.89368791 70.4276562 -303.14992464 69.29578034 -293.27050781 67.58081055 C-291.00238364 67.18791291 -288.73205268 66.81072572 -286.4609375 66.43554688 C-273.94651883 64.33274046 -261.21411922 62.05309677 -249.234375 57.78125 C-246.34674448 56.77158898 -243.42660196 55.89011857 -240.5 55 C-236.09804157 53.65495715 -231.72387131 52.25758253 -227.3671875 50.7734375 C-223.47587815 49.50201959 -219.53642007 48.38641506 -215.6015625 47.2578125 C-211.59850337 45.859781 -207.83509697 44.13540245 -203.98974609 42.35595703 C-198.88940134 40.04276784 -193.69306633 37.96957898 -188.5 35.875 C-186.12620571 34.91430059 -183.75251081 33.95335557 -181.37890625 32.9921875 C-180.16734863 32.50202148 -178.95579102 32.01185547 -177.70751953 31.50683594 C-173.99537567 30.00131388 -170.29230556 28.47449437 -166.58984375 26.9453125 C-164.79160156 26.20498779 -164.79160156 26.20498779 -162.95703125 25.44970703 C-160.67301678 24.50891361 -158.39037666 23.564774 -156.109375 22.61669922 C-150.50848472 20.31657961 -144.95068941 18.30277869 -139.12915039 16.63964844 C-136.47888375 15.84344403 -134.01242964 14.78040746 -131.5 13.625 C-123.56354333 10.24821461 -115.3406967 8.12403852 -107 6 C-105.72745361 5.67467285 -105.72745361 5.67467285 -104.42919922 5.34277344 C-95.13599523 2.99133483 -85.83047062 0.84273406 -76.375 -0.75 C-75.68986328 -0.86553223 -75.00472656 -0.98106445 -74.29882812 -1.10009766 C-49.66333113 -5.01398206 -24.57824173 -3.39402967 0 0 Z " fill="#7FB3BD" transform="translate(733,740)"/>
<path d="M0 0 C1.1303064 -0.03891357 1.1303064 -0.03891357 2.28344727 -0.07861328 C5.76514386 -0.0903877 7.98267082 0.16910774 10.95947266 2.02734375 C13.79447958 4.8558794 14.19550712 6.48005242 14.82421875 10.3984375 C15.02466797 11.58566406 15.22511719 12.77289063 15.43164062 13.99609375 C15.71297852 15.85427734 15.71297852 15.85427734 16 17.75 C16.19916016 18.95011719 16.39832031 20.15023438 16.60351562 21.38671875 C17.96481294 29.69732727 19.15567489 38.03378638 20.3125 46.375 C20.48940872 47.64938934 20.48940872 47.64938934 20.66989136 48.94952393 C21.68777588 56.29805665 22.69090918 63.64855139 23.6875 71 C23.84312408 72.14651031 23.99874817 73.29302063 24.15908813 74.47427368 C26.12311643 88.98647787 27.96046744 103.49913075 29.5 118.0625 C30.86526098 130.97069918 32.67729893 143.75065883 34.84228516 156.55078125 C35.63256492 161.29738369 36.35869923 166.05239427 37.0625 170.8125 C37.19019775 171.63484131 37.31789551 172.45718262 37.44946289 173.30444336 C39.67271801 188.52975688 39.67271801 188.52975688 37.01367188 192.13696289 C34.17003098 194.20643806 30.9429293 193.81409285 27.5625 193.75 C26.43871948 193.73803589 26.43871948 193.73803589 25.29223633 193.72583008 C4.9427528 193.21821745 4.9427528 193.21821745 -0.6875 187.375 C-1.4453125 185.0546875 -1.4453125 185.0546875 -1.8125 182.25 C-2.03099609 180.65091797 -2.03099609 180.65091797 -2.25390625 179.01953125 C-2.39699219 177.81683594 -2.54007812 176.61414063 -2.6875 175.375 C-2.86267749 174.00382898 -3.03848327 172.63273812 -3.21484375 171.26171875 C-4.18083741 163.5530543 -4.94155299 155.87177731 -5.34375 148.109375 C-5.73970565 144.9597278 -6.36903577 141.69346423 -8.6875 139.375 C-10.37027653 139.14666473 -12.06149307 138.97988473 -13.75390625 138.83984375 C-14.79740234 138.75283203 -15.84089844 138.66582031 -16.91601562 138.57617188 C-18.01623047 138.48916016 -19.11644531 138.40214844 -20.25 138.3125 C-21.32314453 138.22162109 -22.39628906 138.13074219 -23.50195312 138.03710938 C-29.25182055 137.56881031 -34.91908337 137.2701197 -40.6875 137.375 C-40.84605469 137.91777588 -41.00460937 138.46055176 -41.16796875 139.01977539 C-43.32582829 146.31521833 -45.64192078 153.55642703 -48.02148438 160.78198242 C-48.46920786 162.14698105 -48.91316038 163.51322179 -49.35351562 164.88061523 C-49.99785286 166.88038903 -50.65384565 168.87599659 -51.3125 170.87109375 C-51.69664062 172.04857178 -52.08078125 173.2260498 -52.4765625 174.43920898 C-53.61200315 177.19196581 -54.27782515 178.67372493 -56.6875 180.375 C-62.59537549 180.9758009 -68.12873447 180.08979278 -73.9375 179.0625 C-74.96556763 178.88630127 -74.96556763 178.88630127 -76.0144043 178.70654297 C-81.23124167 177.70988964 -84.92906932 176.13343068 -88.6875 172.375 C-88.96930328 165.4586814 -86.84636795 158.8186889 -84.66796875 152.34375 C-84.36812576 151.42718628 -84.06828278 150.51062256 -83.75935364 149.56628418 C-83.12780666 147.64205724 -82.49140193 145.7194184 -81.8503418 143.79833984 C-80.87862067 140.88585204 -79.92141581 137.96891405 -78.96679688 135.05078125 C-78.34719581 133.1689935 -77.72677986 131.28747383 -77.10546875 129.40625 C-76.82301804 128.54866089 -76.54056732 127.69107178 -76.2495575 126.80749512 C-74.52952067 121.66243728 -72.61048638 116.63652955 -70.56840515 111.61120605 C-69.51818155 108.94517966 -68.67828878 106.25547 -67.89453125 103.5 C-65.13168595 94.31109051 -61.7330604 85.35914113 -58.375 76.375 C-58.0283429 75.4450119 -57.68168579 74.5150238 -57.32452393 73.55685425 C-52.24448682 59.94676111 -47.00640776 46.40617479 -41.5625 32.9375 C-41.25734467 32.17880615 -40.95218933 31.4201123 -40.63778687 30.63842773 C-30.54980241 5.61653494 -30.54980241 5.61653494 -25.6875 2.375 C-17.24983531 0.68538111 -8.59074166 0.15717463 0 0 Z " fill="#0E465A" transform="translate(298.6875,354.625)"/>
<path d="M0 0 C2.06125036 0.32084265 4.12116593 0.65037299 6.1796875 0.98828125 C7.21222656 1.13716797 8.24476563 1.28605469 9.30859375 1.43945312 C22.05394295 3.50955761 22.05394295 3.50955761 26.0546875 8.30078125 C28.42399145 13.46143662 29.75982966 18.78620042 31.0546875 24.30078125 C31.25187378 25.12791626 31.44906006 25.95505127 31.65222168 26.80725098 C33.18456319 33.32485119 34.56830597 39.87068789 35.9296875 46.42578125 C36.36749712 48.51017587 36.80532289 50.59456709 37.24316406 52.67895508 C41.01105635 70.71648761 44.47482382 88.80169332 47.64459229 106.95349121 C48.07145523 109.39675588 48.50128316 111.83948917 48.93115234 114.28222656 C49.65948314 118.43202004 50.37691182 122.5835696 51.08581543 126.73672485 C51.35251962 128.29647168 51.62125176 129.85587337 51.89221191 131.41488647 C54.81418615 148.29383739 54.81418615 148.29383739 54.0546875 154.30078125 C48.76447657 160.51059894 39.23393168 160.95677227 31.54296875 161.58984375 C25.65650484 161.74605871 25.65650484 161.74605871 23.0546875 161.30078125 C20.96684737 158.16902106 20.39168929 156.06604384 19.58203125 152.42578125 C19.32228516 151.2759375 19.06253906 150.12609375 18.79492188 148.94140625 C18.53001953 147.74 18.26511719 146.53859375 17.9921875 145.30078125 C17.46081151 142.92551784 16.92831175 140.55050547 16.39453125 138.17578125 C16.04442993 136.59410156 16.04442993 136.59410156 15.68725586 134.98046875 C15.07871435 132.22317403 15.07871435 132.22317403 14.0546875 129.30078125 C6.59152322 129.03264361 -0.71589742 129.46430591 -8.1328125 130.23828125 C-9.40765503 130.36855713 -9.40765503 130.36855713 -10.70825195 130.50146484 C-14.65158408 130.59337061 -14.65158408 130.59337061 -17.9453125 132.30078125 C-18.39831031 134.39742654 -18.80561912 136.50395256 -19.1953125 138.61328125 C-20.4554863 145.07706246 -21.82244877 151.51283172 -23.3203125 157.92578125 C-23.5049707 158.77825439 -23.68962891 159.63072754 -23.87988281 160.5090332 C-25.13648414 165.74956087 -26.48489832 168.92779651 -30.9453125 172.30078125 C-33.62890625 173.41015625 -33.62890625 173.41015625 -36.3828125 174.05078125 C-37.34960938 174.27894531 -38.31640625 174.50710938 -39.3125 174.7421875 C-40.18132813 174.92652344 -41.05015625 175.11085938 -41.9453125 175.30078125 C-42.9559375 175.52765625 -43.9665625 175.75453125 -45.0078125 175.98828125 C-56.62996378 177.22468032 -56.62996378 177.22468032 -59.59423828 175.14257812 C-62.55310316 171.10902614 -60.61193362 164.96650899 -59.9453125 160.30078125 C-59.04250788 155.50829786 -57.92585484 150.78486867 -56.7578125 146.05078125 C-56.43838033 144.72490967 -56.11987581 143.3988143 -55.80224609 142.07250977 C-55.16046799 139.39938504 -54.5132746 136.72767238 -53.86083984 134.05712891 C-53.0519529 130.73831969 -52.25452947 127.41716926 -51.46484375 124.09375 C-50.26287519 119.0397704 -49.04729251 113.98920777 -47.82568359 108.93994141 C-47.17928669 106.26795245 -46.5337969 103.59575334 -45.88916016 100.92333984 C-37.86450911 67.66601727 -37.86450911 67.66601727 -34.5378418 55.34765625 C-33.4745627 51.39400335 -32.51627783 47.43593491 -31.63989258 43.43530273 C-29.81246304 35.17524096 -27.50035196 27.06753772 -25.04626465 18.97479248 C-24.64827605 17.65919884 -24.25441711 16.34234824 -23.86486816 15.02423096 C-23.31113187 13.15802007 -22.7378978 11.29762903 -22.1640625 9.4375 C-21.6680957 7.80880981 -21.6680957 7.80880981 -21.16210938 6.1472168 C-17.01583191 -3.55211085 -8.86220229 -1.14401931 0 0 Z " fill="#0F475B" transform="translate(667.9453125,361.69921875)"/>
<path d="M0 0 C2.91585511 1.45792756 3.10551795 3.70107008 4.11328125 6.64257812 C4.36464844 7.39990234 4.61601563 8.15722656 4.875 8.9375 C6.45611069 13.62645525 8.08169453 18.26772224 9.94921875 22.8515625 C20.02447015 47.73474417 26.06487523 73.67189756 30.65570068 100.04199219 C30.97934462 101.8825342 31.31660464 103.72066714 31.65478516 105.55859375 C41.4267696 160.26307854 36.03975489 220.25147131 23 274 C19.02377579 272.15418194 16.10478508 269.54324559 12.9375 266.5625 C12.14375977 265.82676758 12.14375977 265.82676758 11.33398438 265.07617188 C9.8815348 263.72577647 8.44031222 262.3633335 7 261 C6.16553345 260.31309082 6.16553345 260.31309082 5.31420898 259.61230469 C4 258 4 258 3.85986328 255.94799805 C3.97056152 255.16465088 4.08125977 254.38130371 4.1953125 253.57421875 C4.31422852 252.68395996 4.43314453 251.79370117 4.55566406 250.87646484 C4.70229492 249.92723145 4.84892578 248.97799805 5 248 C5.13889648 247.04947754 5.27779297 246.09895508 5.42089844 245.11962891 C6.03886313 241.00008965 6.70206233 236.88817229 7.36328125 232.77539062 C7.81829101 229.89189856 8.25522215 227.00631806 8.68121338 224.1184082 C8.90705964 222.61760944 9.14107811 221.11803004 9.38079834 219.61938477 C11.84111931 204.12168269 12.46880913 188.90376007 12.39111328 173.22314453 C12.37510342 169.39969738 12.39102201 165.57732066 12.41015625 161.75390625 C12.4267389 142.23299545 12.00791543 122.02975389 7.44573975 102.95690918 C6.7944151 100.09743078 6.44257366 97.21726143 6.08203125 94.30859375 C5.0866644 87.08903416 3.4988074 80.11654965 1.6875 73.0625 C1.22065796 71.22292725 1.22065796 71.22292725 0.74438477 69.34619141 C-1.47212728 60.74171564 -3.99033838 52.36222905 -7 44 C-8.14305508 40.81857698 -9.26354411 37.63008228 -10.375 34.4375 C-10.65029541 33.68645996 -10.92559082 32.93541992 -11.20922852 32.16162109 C-13.01836436 26.94985269 -13.54403166 23.29899892 -11.11181641 18.10229492 C-10.00510044 15.98986279 -8.83107794 13.93220257 -7.625 11.875 C-7.22539063 11.17246094 -6.82578125 10.46992188 -6.4140625 9.74609375 C-4.45525145 6.33750478 -2.46792781 3.07296817 0 0 Z " fill="#B0B1B5" transform="translate(929,327)"/>
<path d="M0 0 C7.23896558 0.14231256 12.43506226 2.1920224 17.875 6.9375 C21.1930087 10.85878301 22.34031426 13.11117059 22.1875 18.31640625 C21.64234531 22.80541441 19.76370517 25.61234908 16.5 28.625 C11.70135153 31.90212578 8.7331809 32.64972101 2.8125 32.625 C1.57242188 32.63015625 0.33234375 32.6353125 -0.9453125 32.640625 C-4.0625 32.375 -4.0625 32.375 -6.0625 30.375 C-7.83191036 25.25868351 -7.24687762 19.58926875 -7.25 14.25 C-7.26836914 12.58517578 -7.26836914 12.58517578 -7.28710938 10.88671875 C-7.28904297 9.82839844 -7.29097656 8.77007812 -7.29296875 7.6796875 C-7.29707764 6.71015137 -7.30118652 5.74061523 -7.30541992 4.74169922 C-6.82258916 0.03761744 -4.08058322 0.05739217 0 0 Z " fill="#F6F8F9" transform="translate(765.0625,407.625)"/>
<path d="M0 0 C0.66 0 1.32 0 2 0 C4.12475351 11.01072308 5.68906216 21.95011831 6.61791992 33.1262207 C6.81690712 35.48984909 7.03596334 37.85112499 7.25585938 40.21289062 C7.38660667 41.72385583 7.51621049 43.23492053 7.64453125 44.74609375 C7.711064 45.44802353 7.77759674 46.14995331 7.84614563 46.87315369 C7.9795335 48.57766057 7.99960499 50.29028193 8 52 C6 54 6 54 3.27734375 54.046875 C-3.31138306 53.46121039 -9.58642541 52.63056981 -16 51 C-12.49056185 33.45280924 -6.1751149 16.74487678 0 0 Z " fill="#F1F5F6" transform="translate(283,407)"/>
<path d="M0 0 C0.66 0.33 1.32 0.66 2 1 C2.73087254 3.88049766 3.33548916 6.70702415 3.875 9.625 C4.12672974 10.94383179 4.12672974 10.94383179 4.38354492 12.28930664 C4.93225898 15.191106 5.46595754 18.09546775 6 21 C6.1944873 22.02947754 6.38897461 23.05895508 6.58935547 24.11962891 C7.17493506 27.22363377 7.74608861 30.32994531 8.3125 33.4375 C8.49603027 34.41348145 8.67956055 35.38946289 8.86865234 36.39501953 C9.11349365 37.77536377 9.11349365 37.77536377 9.36328125 39.18359375 C9.51063721 39.99368896 9.65799316 40.80378418 9.80981445 41.63842773 C10.02419565 44.3004423 9.68549327 46.42613533 9 49 C6.18083041 51.81916959 -1.34499678 50.98683411 -5.109375 51.0625 C-7.74038268 51.0625 -10.36940618 51.04501016 -13 51 C-12.35213016 44.95321479 -11.23896971 39.15894491 -9.8125 33.25 C-9.5969043 32.34983154 -9.38130859 31.44966309 -9.15917969 30.5222168 C-3.31794614 6.63589229 -3.31794614 6.63589229 0 0 Z " fill="#F3F7F8" transform="translate(669,409)"/>
<path d="M0 0 C0 3 0 3 -2.625 5.91796875 C-3.74249406 7.01550756 -4.86785643 8.10507895 -6 9.1875 C-6.57234375 9.74630859 -7.1446875 10.30511719 -7.734375 10.88085938 C-9.14962788 12.26073093 -10.57397155 13.63126734 -12 15 C-12.66 14.67 -13.32 14.34 -14 14 C-9.67106815 8.81580806 -5.23435005 4.27293882 0 0 Z " fill="#1B4C5F" transform="translate(71,434)"/>
<path d="M0 0 C0.33 0 0.66 0 1 0 C1 3.96 1 7.92 1 12 C0.34 10.68 -0.32 9.36 -1 8 C-1.99 8.495 -1.99 8.495 -3 9 C-2.01 6.03 -1.02 3.06 0 0 Z " fill="#CFE1E5" transform="translate(572,417)"/>
<path d="M0 0 C0.66 0.33 1.32 0.66 2 1 C2.40729228 3.32156597 2.74438677 5.6568787 3 8 C2.67 7.01 2.34 6.02 2 5 C-0.51083114 6.25541557 -0.87125446 7.50063488 -2 10 C-3 8 -3 8 -2.44140625 6.0546875 C-2.15136719 5.33539063 -1.86132812 4.61609375 -1.5625 3.875 C-1.27503906 3.15054687 -0.98757813 2.42609375 -0.69140625 1.6796875 C-0.46324219 1.12539063 -0.23507812 0.57109375 0 0 Z " fill="#BBCFD6" transform="translate(669,409)"/>
<path d="M0 0 C0.90492188 0.02320313 1.80984375 0.04640625 2.7421875 0.0703125 C4.10730469 0.09738281 4.10730469 0.09738281 5.5 0.125 C6.19867187 0.14820313 6.89734375 0.17140625 7.6171875 0.1953125 C7.6171875 0.5253125 7.6171875 0.8553125 7.6171875 1.1953125 C4.6471875 1.1953125 1.6771875 1.1953125 -1.3828125 1.1953125 C-2.0428125 2.5153125 -2.7028125 3.8353125 -3.3828125 5.1953125 C-4.3728125 5.5253125 -5.3628125 5.8553125 -6.3828125 6.1953125 C-3.63053977 0.29758523 -3.63053977 0.29758523 0 0 Z " fill="#2E5A6A" transform="translate(654.3828125,360.8046875)"/>
</svg>
